[mp3 @ 00000265272ee040] Estimating duration from bitrate, this may be inaccurate
Input #0, mp3, from 'C:\Users\cojov\AppData\Local\Temp\tmp4we2t3bk.mp3':
  Metadata:
    encoder         : Lavf59.27.100
  Duration: 00:00:10.29, start: 0.000000, bitrate: 128 kb/s
  Stream #0:0: Audio: mp3 (mp3float), 44100 Hz, mono, fltp, 128 kb/s
  10.22 M-A:  0.000 fd=   0 aq=    0KB vq=    0KB sq=    0B 
2025-05-01 15:25:15,108 - INFO - main.py:195 - Audio playback finished.
2025-05-01 15:25:15,108 - INFO - main.py:196 - Exiting speak_with_elevenlabs function successfully.
2025-05-01 15:25:15,108 - INFO - main.py:211 - Attempting to remove temporary file: C:\Users\cojov\AppData\Local\Temp\tmp4we2t3bk.mp3
2025-05-01 15:25:15,610 - INFO - main.py:215 - Temporary file removed successfully.
2025-05-01 15:25:15,611 - INFO - main.py:265 - Exiting speak_text function successfully.
2025-05-01 15:25:15,611 - INFO - main.py:344 - --- Webhook request processing complete ---
2025-05-01 15:25:15,612 - INFO - _internal.py:97 - 127.0.0.1 - - [01/May/2025 15:25:15] "POST /webhook HTTP/1.1" 204 -    
2025-05-01 15:32:54,498 - INFO - main.py:273 - --- Webhook request received ---
2025-05-01 15:32:54,498 - INFO - main.py:278 - Request Content-Type: text/plain
2025-05-01 15:32:54,498 - INFO - main.py:302 - Successfully decoded text/plain data.
2025-05-01 15:32:54,498 - INFO - main.py:65 - Entering summarize_with_gpt function.
2025-05-01 15:32:54,499 - INFO - main.py:84 - Input data is string (plain text assumed).
2025-05-01 15:32:54,499 - INFO - main.py:105 - Attempting GPT call with model gpt-4.
2025-05-01 15:32:57,418 - INFO - _client.py:1025 - HTTP Request: POST https://api.openai.com/v1/chat/completions "HTTP/1.1 200 OK"
2025-05-01 15:32:57,420 - INFO - main.py:120 - Successfully received GPT summary: '"Ah, Sir Cody of Technology, heed this message. Eric Francis of CMAC Roofing, located at Texas Tile, implores assistance for his co-worker, Chris Harrison, whose computing device has tragically met its demise. A replacement is sought, posthaste."'
2025-05-01 15:32:57,421 - INFO - main.py:121 - Exiting summarize_with_gpt function successfully.
2025-05-01 15:32:57,421 - INFO - main.py:244 - Entering speak_text function.
2025-05-01 15:32:57,422 - INFO - main.py:251 - Attempting TTS using ElevenLabs.
2025-05-01 15:32:57,422 - INFO - main.py:137 - Entering speak_with_elevenlabs function.
2025-05-01 15:32:57,422 - INFO - main.py:160 - Sending request to ElevenLabs API for voice 2EiwWnXFnvU5JabPnv8n.
2025-05-01 15:33:01,197 - INFO - main.py:163 - ElevenLabs API response status code: 200
2025-05-01 15:33:01,198 - INFO - main.py:169 - Saving ElevenLabs audio to temporary file: C:\Users\cojov\AppData\Local\Temp\tmpvaknlazt.mp3
2025-05-01 15:33:01,215 - INFO - main.py:174 - Finished writing 328978 bytes to temporary file.
2025-05-01 15:33:01,216 - INFO - main.py:184 - Attempting to play audio file: C:\Users\cojov\AppData\Local\Temp\tmpvaknlazt.mp3
2025-05-01 15:33:01,216 - INFO - main.py:188 - Executing playback command: ffplay -nodisp -autoexit "C:\Users\cojov\AppData\Local\Temp\tmpvaknlazt.mp3"
ffplay version 7.1-full_build-www.gyan.dev Copyright (c) 2003-2024 the FFmpeg developers
  built with gcc 14.2.0 (Rev1, Built by MSYS2 project)
  configuration: --enable-gpl --enable-version3 --enable-static --disable-w32threads --disable-autodetect --enable-fontconfig --enable-iconv --enable-gnutls --enable-libxml2 --enable-gmp --enable-bzlib --enable-lzma --enable-libsnappy --enable-zlib --enable-librist --enable-libsrt --enable-libssh --enable-libzmq --enable-avisynth --enable-libbluray --enable-libcaca --enable-sdl2 --enable-libaribb24 --enable-libaribcaption --enable-libdav1d --enable-libdavs2 --enable-libopenjpeg --enable-libquirc --enable-libuavs3d --enable-libxevd --enable-libzvbi --enable-libqrencode --enable-librav1e --enable-libsvtav1 --enable-libvvenc --enable-libwebp --enable-libx264 --enable-libx265 --enable-libxavs2 --enable-libxeve --enable-libxvid --enable-libaom --enable-libjxl --enable-libvpx --enable-mediafoundation --enable-libass --enable-frei0r --enable-libfreetype --enable-libfribidi --enable-libharfbuzz --enable-liblensfun --enable-libvidstab --enable-libvmaf --enable-libzimg --enable-amf --enable-cuda-llvm --enable-cuvid --enable-dxva2 --enable-d3d11va --enable-d3d12va --enable-ffnvcodec --enable-libvpl --enable-nvdec --enable-nvenc --enable-vaapi --enable-libshaderc --enable-vulkan --enable-libplacebo --enable-opencl --enable-libcdio --enable-libgme --enable-libmodplug --enable-libopenmpt --enable-libopencore-amrwb --enable-libmp3lame --enable-libshine --enable-libtheora --enable-libtwolame --enable-libvo-amrwbenc --enable-libcodec2 --enable-libilbc --enable-libgsm --enable-liblc3 --enable-libopencore-amrnb --enable-libopus --enable-libspeex --enable-libvorbis --enable-ladspa --enable-libbs2b --enable-libflite --enable-libmysofa --enable-librubberband --enable-libsoxr --enable-chromaprint      
  libavutil      59. 39.100 / 59. 39.100
  libavcodec     61. 19.100 / 61. 19.100
  libavformat    61.  7.100 / 61.  7.100
  libavdevice    61.  3.100 / 61.  3.100
  libavfilter    10.  4.100 / 10.  4.100
  libswscale      8.  3.100 /  8.  3.100
  libswresample   5.  3.100 /  5.  3.100
  libpostproc    58.  3.100 / 58.  3.100
[mp3 @ 000002de8872e040] Estimating duration from bitrate, this may be inaccurate
Input #0, mp3, from 'C:\Users\cojov\AppData\Local\Temp\tmpvaknlazt.mp3':
  Metadata:
    encoder         : Lavf59.27.100
  Duration: 00:00:20.56, start: 0.000000, bitrate: 128 kb/s
  Stream #0:0: Audio: mp3 (mp3float), 44100 Hz, mono, fltp, 128 kb/s
  20.51 M-A:  0.000 fd=   0 aq=    0KB vq=    0KB sq=    0B 
2025-05-01 15:33:22,117 - INFO - main.py:195 - Audio playback finished.
2025-05-01 15:33:22,118 - INFO - main.py:196 - Exiting speak_with_elevenlabs function successfully.
2025-05-01 15:33:22,118 - INFO - main.py:211 - Attempting to remove temporary file: C:\Users\cojov\AppData\Local\Temp\tmpvaknlazt.mp3
2025-05-01 15:33:22,619 - INFO - main.py:215 - Temporary file removed successfully.
2025-05-01 15:33:22,620 - INFO - main.py:265 - Exiting speak_text function successfully.
2025-05-01 15:33:22,620 - INFO - main.py:344 - --- Webhook request processing complete ---
2025-05-01 15:33:22,622 - INFO - _internal.py:97 - 127.0.0.1 - - [01/May/2025 15:33:22] "POST /webhook HTTP/1.1" 204 -    
